<?xml version="1.0" encoding="UTF-8"?>
<svg version="1.1" xmlns="http://www.w3.org/2000/svg" width="300" height="300">
<path d="M0 0 C0.77984739 -0.00297112 1.55969478 -0.00594224 2.3631739 -0.0090034 C4.97299743 -0.01766597 7.58277494 -0.0191966 10.19261169 -0.02069092 C12.06548154 -0.02532093 13.93835045 -0.03034584 15.81121826 -0.03573608 C20.89834218 -0.04884699 25.9854529 -0.05530283 31.07259107 -0.05974674 C34.2538904 -0.0626804 37.43518616 -0.06678583 40.61648369 -0.07125092 C50.5786686 -0.08492421 60.5408453 -0.09459092 70.50303894 -0.09845281 C81.98621362 -0.10292918 93.469269 -0.1204583 104.95240742 -0.1494534 C113.83839966 -0.17110817 122.72435844 -0.18115916 131.61037678 -0.18249393 C136.91258549 -0.1835395 142.21468204 -0.18939426 147.51686287 -0.20731354 C152.50980523 -0.22385922 157.50255191 -0.2259183 162.49551201 -0.21717453 C164.32073365 -0.21640755 166.1459661 -0.22070182 167.97116089 -0.23063278 C180.705591 -0.2958166 192.43440437 0.40654351 203.81541443 6.76544189 C204.44439636 7.10954102 205.0733783 7.45364014 205.72142029 7.8081665 C211.60383057 11.15268322 216.48721283 15.27780973 221.19041443 20.14044189 C222.04699646 21.00089111 222.04699646 21.00089111 222.92088318 21.87872314 C232.85450743 32.57843667 238.34813295 47.50809519 238.33085632 61.95002747 C238.33531301 63.11979855 238.33531301 63.11979855 238.33985972 64.31320137 C238.34852229 66.92302489 238.35005292 69.53280241 238.35154724 72.14263916 C238.35617725 74.01550901 238.36120216 75.88837791 238.36659241 77.76124573 C238.37970331 82.84836964 238.38615916 87.93548036 238.39060307 93.02261853 C238.39353673 96.20391787 238.39764216 99.38521362 238.40210724 102.56651115 C238.41578054 112.52869607 238.42544725 122.49087276 238.42930913 132.45306641 C238.43378551 143.93624108 238.45131462 155.41929647 238.48030972 166.90243489 C238.50196449 175.78842713 238.51201548 184.67438591 238.51335025 193.56040424 C238.51439583 198.86261295 238.52025058 204.16470951 238.53816986 209.46689034 C238.55471554 214.45983269 238.55677462 219.45257938 238.54803085 224.44553947 C238.54726387 226.27076112 238.55155814 228.09599357 238.56148911 229.92118835 C238.62667292 242.65561846 237.92431281 254.38443184 231.56541443 265.76544189 C231.22131531 266.39442383 230.87721619 267.02340576 230.52268982 267.67144775 C227.1781731 273.55385803 223.05304659 278.43724029 218.19041443 283.14044189 C217.61678162 283.71149658 217.0431488 284.28255127 216.45213318 284.87091064 C205.75241965 294.80453489 190.82276114 300.29816042 176.38082886 300.28088379 C175.21105778 300.28534047 175.21105778 300.28534047 174.01765496 300.28988719 C171.40783143 300.29854976 168.79805391 300.30008039 166.18821716 300.30157471 C164.31534732 300.30620472 162.44247841 300.31122962 160.5696106 300.31661987 C155.48248668 300.32973078 150.39537596 300.33618662 145.30823779 300.34063053 C142.12693845 300.34356419 138.9456427 300.34766962 135.76434517 300.3521347 C125.80216026 300.365808 115.83998356 300.37547471 105.87778991 300.3793366 C94.39461524 300.38381297 82.91155985 300.40134208 71.42842144 300.43033719 C62.5424292 300.45199195 53.65647042 300.46204295 44.77045208 300.46337771 C39.46824337 300.46442329 34.16614682 300.47027805 28.86396599 300.48819733 C23.87102363 300.50474301 18.87827695 300.50680209 13.88531685 300.49805832 C12.0600952 300.49729134 10.23486276 300.50158561 8.40966797 300.51151657 C-4.32476214 300.57670039 -16.05357551 299.87434028 -27.43458557 293.51544189 C-28.0635675 293.17134277 -28.69254944 292.82724365 -29.34059143 292.47271729 C-35.22300171 289.12820057 -40.10638397 285.00307406 -44.80958557 280.14044189 C-45.38064026 279.56680908 -45.95169495 278.99317627 -46.54005432 278.40216064 C-56.47367857 267.70244712 -61.9673041 252.7727886 -61.95002747 238.33085632 C-61.95299859 237.55100894 -61.95596971 236.77116155 -61.95903087 235.96768242 C-61.96769343 233.3578589 -61.96922406 230.74808138 -61.97071838 228.13824463 C-61.97534839 226.26537478 -61.9803733 224.39250588 -61.98576355 222.51963806 C-61.99887445 217.43251415 -62.0053303 212.34540342 -62.00977421 207.25826526 C-62.01270787 204.07696592 -62.0168133 200.89567017 -62.02127838 197.71437263 C-62.03495168 187.75218772 -62.04461839 177.79001102 -62.04848027 167.82781738 C-62.05295665 156.3446427 -62.07048576 144.86158732 -62.09948087 133.3784489 C-62.12113563 124.49245666 -62.13118663 115.60649788 -62.13252139 106.72047955 C-62.13356697 101.41827084 -62.13942172 96.11617428 -62.157341 90.81399345 C-62.17388669 85.8210511 -62.17594576 80.82830441 -62.167202 75.83534431 C-62.16643501 74.01012267 -62.17072928 72.18489022 -62.18066025 70.35969543 C-62.24584406 57.62526533 -61.54348395 45.89645195 -55.18458557 34.51544189 C-54.84048645 33.88645996 -54.49638733 33.25747803 -54.14186096 32.60943604 C-50.79734424 26.72702576 -46.67221774 21.8436435 -41.80958557 17.14044189 C-41.23595276 16.56938721 -40.66231995 15.99833252 -40.07130432 15.40997314 C-29.3715908 5.47634889 -14.44193228 -0.01727663 0 0 Z " fill="#FCF7F8" transform="translate(61.80958557128906,-0.14044189453125)"/>
<path d="M0 0 C0.77984739 -0.00297112 1.55969478 -0.00594224 2.3631739 -0.0090034 C4.97299743 -0.01766597 7.58277494 -0.0191966 10.19261169 -0.02069092 C12.06548154 -0.02532093 13.93835045 -0.03034584 15.81121826 -0.03573608 C20.89834218 -0.04884699 25.9854529 -0.05530283 31.07259107 -0.05974674 C34.2538904 -0.0626804 37.43518616 -0.06678583 40.61648369 -0.07125092 C50.5786686 -0.08492421 60.5408453 -0.09459092 70.50303894 -0.09845281 C81.98621362 -0.10292918 93.469269 -0.1204583 104.95240742 -0.1494534 C113.83839966 -0.17110817 122.72435844 -0.18115916 131.61037678 -0.18249393 C136.91258549 -0.1835395 142.21468204 -0.18939426 147.51686287 -0.20731354 C152.50980523 -0.22385922 157.50255191 -0.2259183 162.49551201 -0.21717453 C164.32073365 -0.21640755 166.1459661 -0.22070182 167.97116089 -0.23063278 C180.705591 -0.2958166 192.43440437 0.40654351 203.81541443 6.76544189 C204.44439636 7.10954102 205.0733783 7.45364014 205.72142029 7.8081665 C211.60383057 11.15268322 216.48721283 15.27780973 221.19041443 20.14044189 C222.04699646 21.00089111 222.04699646 21.00089111 222.92088318 21.87872314 C232.85450743 32.57843667 238.34813295 47.50809519 238.33085632 61.95002747 C238.33531301 63.11979855 238.33531301 63.11979855 238.33985972 64.31320137 C238.34852229 66.92302489 238.35005292 69.53280241 238.35154724 72.14263916 C238.35617725 74.01550901 238.36120216 75.88837791 238.36659241 77.76124573 C238.37970331 82.84836964 238.38615916 87.93548036 238.39060307 93.02261853 C238.39353673 96.20391787 238.39764216 99.38521362 238.40210724 102.56651115 C238.41578054 112.52869607 238.42544725 122.49087276 238.42930913 132.45306641 C238.43378551 143.93624108 238.45131462 155.41929647 238.48030972 166.90243489 C238.50196449 175.78842713 238.51201548 184.67438591 238.51335025 193.56040424 C238.51439583 198.86261295 238.52025058 204.16470951 238.53816986 209.46689034 C238.55471554 214.45983269 238.55677462 219.45257938 238.54803085 224.44553947 C238.54726387 226.27076112 238.55155814 228.09599357 238.56148911 229.92118835 C238.62667292 242.65561846 237.92431281 254.38443184 231.56541443 265.76544189 C231.22131531 266.39442383 230.87721619 267.02340576 230.52268982 267.67144775 C227.1781731 273.55385803 223.05304659 278.43724029 218.19041443 283.14044189 C217.61678162 283.71149658 217.0431488 284.28255127 216.45213318 284.87091064 C205.75241965 294.80453489 190.82276114 300.29816042 176.38082886 300.28088379 C175.21105778 300.28534047 175.21105778 300.28534047 174.01765496 300.28988719 C171.40783143 300.29854976 168.79805391 300.30008039 166.18821716 300.30157471 C164.31534732 300.30620472 162.44247841 300.31122962 160.5696106 300.31661987 C155.48248668 300.32973078 150.39537596 300.33618662 145.30823779 300.34063053 C142.12693845 300.34356419 138.9456427 300.34766962 135.76434517 300.3521347 C125.80216026 300.365808 115.83998356 300.37547471 105.87778991 300.3793366 C94.39461524 300.38381297 82.91155985 300.40134208 71.42842144 300.43033719 C62.5424292 300.45199195 53.65647042 300.46204295 44.77045208 300.46337771 C39.46824337 300.46442329 34.16614682 300.47027805 28.86396599 300.48819733 C23.87102363 300.50474301 18.87827695 300.50680209 13.88531685 300.49805832 C12.0600952 300.49729134 10.23486276 300.50158561 8.40966797 300.51151657 C-4.32476214 300.57670039 -16.05357551 299.87434028 -27.43458557 293.51544189 C-28.0635675 293.17134277 -28.69254944 292.82724365 -29.34059143 292.47271729 C-35.22300171 289.12820057 -40.10638397 285.00307406 -44.80958557 280.14044189 C-45.38064026 279.56680908 -45.95169495 278.99317627 -46.54005432 278.40216064 C-56.47367857 267.70244712 -61.9673041 252.7727886 -61.95002747 238.33085632 C-61.95299859 237.55100894 -61.95596971 236.77116155 -61.95903087 235.96768242 C-61.96769343 233.3578589 -61.96922406 230.74808138 -61.97071838 228.13824463 C-61.97534839 226.26537478 -61.9803733 224.39250588 -61.98576355 222.51963806 C-61.99887445 217.43251415 -62.0053303 212.34540342 -62.00977421 207.25826526 C-62.01270787 204.07696592 -62.0168133 200.89567017 -62.02127838 197.71437263 C-62.03495168 187.75218772 -62.04461839 177.79001102 -62.04848027 167.82781738 C-62.05295665 156.3446427 -62.07048576 144.86158732 -62.09948087 133.3784489 C-62.12113563 124.49245666 -62.13118663 115.60649788 -62.13252139 106.72047955 C-62.13356697 101.41827084 -62.13942172 96.11617428 -62.157341 90.81399345 C-62.17388669 85.8210511 -62.17594576 80.82830441 -62.167202 75.83534431 C-62.16643501 74.01012267 -62.17072928 72.18489022 -62.18066025 70.35969543 C-62.24584406 57.62526533 -61.54348395 45.89645195 -55.18458557 34.51544189 C-54.84048645 33.88645996 -54.49638733 33.25747803 -54.14186096 32.60943604 C-50.79734424 26.72702576 -46.67221774 21.8436435 -41.80958557 17.14044189 C-41.23595276 16.56938721 -40.66231995 15.99833252 -40.07130432 15.40997314 C-29.3715908 5.47634889 -14.44193228 -0.01727663 0 0 Z M8.19041443 54.14044189 C7.37057068 54.80817627 6.55072693 55.47591064 5.70603943 56.16387939 C-0.2547512 61.19971976 -5.07546415 66.95638661 -9.80958557 73.14044189 C-10.40513245 73.90872314 -11.00067932 74.67700439 -11.61427307 75.46856689 C-29.82172192 100.13672339 -38.49086029 131.4823715 -34.20021057 161.96856689 C-28.73914838 195.66181759 -12.42870488 226.21565853 15.56150818 246.64434814 C43.63687273 266.43579843 76.34641146 273.54726947 110.19041443 268.14044189 C130.98904341 264.31973644 151.30678199 255.12346874 167.19041443 241.14044189 C167.99607849 240.46626221 168.80174255 239.79208252 169.63182068 239.09747314 C193.53169348 218.56377961 208.15272754 188.59229318 210.90916443 157.28497314 C213.2476273 125.24353482 203.87672431 94.25201003 183.03807068 69.59356689 C180.80149413 67.06218676 178.50979196 64.59602448 176.19041443 62.14044189 C175.06893005 60.90487549 175.06893005 60.90487549 173.92478943 59.64434814 C152.1954524 36.58390934 119.99579917 25.68738188 88.99412537 24.68756104 C59.11618906 24.24466997 30.98371847 35.02146828 8.19041443 54.14044189 Z " fill="#FEFEFE" transform="translate(61.80958557128906,-0.14044189453125)"/>
<path d="M0 0 C39.6 0 79.2 0 120 0 C120 67.2925243 120 67.2925243 113.75 80.375 C113.44626465 81.03580566 113.1425293 81.69661133 112.82958984 82.37744141 C103.2852281 102.51461721 86.81098306 115.75931587 67 125 C60.25083255 127.24972248 55.45919976 126.4789462 49.20727539 123.54199219 C41.60171654 119.73609171 34.63556403 115.3447228 28 110 C26.51693359 108.82824219 26.51693359 108.82824219 25.00390625 107.6328125 C10.00639455 94.48804932 2.42339624 75.38716993 0 56 C0 37.52 0 19.04 0 0 Z " fill="#C1183C" transform="translate(90,97)"/>
<path d="M0 0 C23.07322125 -0.70359981 44.62748035 8.87837439 61.58984375 24.19921875 C71.47875351 33.80010201 78.56623692 45.01507015 82.58984375 58.19921875 C82.87601563 59.10027344 83.1621875 60.00132813 83.45703125 60.9296875 C90.29602239 82.97729227 86.63456465 105.3331034 76.32421875 125.69921875 C64.70210507 146.53887086 45.72876289 160.22761801 22.9609375 166.7265625 C-1.70398368 171.64329308 -24.43592497 167.56198092 -45.54296875 154.21875 C-60.37646851 143.86835532 -70.9069143 130.04044106 -77.41015625 113.19921875 C-77.82394531 112.1421875 -78.23773438 111.08515625 -78.6640625 109.99609375 C-85.34300697 89.61018657 -82.91325713 65.91834316 -73.66015625 46.82421875 C-70.2970813 40.30421043 -66.39639381 34.60619807 -61.41015625 29.19921875 C-60.59933594 28.296875 -59.78851563 27.39453125 -58.953125 26.46484375 C-43.10972781 9.67037879 -22.88241376 1.33677331 0 0 Z M-57.41015625 34.19921875 C-59.98699367 93.34349046 -59.98699367 93.34349046 -33.41015625 141.19921875 C-23.70247206 150.22218164 -9.44125276 160.62208958 4.17773438 160.44042969 C8.12533689 160.04566944 11.32171468 158.5865968 14.83984375 156.82421875 C15.93401611 156.29163452 15.93401611 156.29163452 17.05029297 155.74829102 C24.28275805 152.08781355 30.47821206 147.48779402 36.58984375 142.19921875 C37.26273437 141.626875 37.935625 141.05453125 38.62890625 140.46484375 C53.07938944 127.13608757 59.17223924 108.99604355 62.58984375 90.19921875 C62.58984375 71.71921875 62.58984375 53.23921875 62.58984375 34.19921875 C22.98984375 34.19921875 -16.61015625 34.19921875 -57.41015625 34.19921875 Z " fill="#FEFCFC" transform="translate(147.41015625,62.80078125)"/>
<path d="M0 0 C35.97 0 71.94 0 109 0 C109 8.58 109 17.16 109 26 C73.03 26 37.06 26 0 26 C0 17.42 0 8.84 0 0 Z " fill="#FEFCFD" transform="translate(96,129)"/>
<path d="M0 0 C0.57379395 0.35368652 1.14758789 0.70737305 1.73876953 1.07177734 C17.20169958 10.84769341 30.39688428 24.46001502 40 40 C40.35497559 40.56976563 40.70995117 41.13953125 41.07568359 41.7265625 C57.6996856 69.02266888 61.43413431 101.04543878 55 132 C47.31699194 162.98429373 28.16182604 191.04451233 0.86083984 207.95019531 C-29.59929713 226.16742394 -63.2306008 230.93880386 -97.63012695 222.80908203 C-105.48569385 220.78817773 -112.73873606 217.56834664 -120 214 C-120.99773437 213.5153125 -121.99546875 213.030625 -123.0234375 212.53125 C-149.82003451 198.71065555 -168.41200657 175.24839943 -180 148 C-180.42152344 147.01257813 -180.84304687 146.02515625 -181.27734375 145.0078125 C-192.03580014 117.64479513 -190.63038013 83.85669067 -179 57 C-173.63975163 45.27744651 -167.3428685 34.8254461 -159 25 C-157.94232422 23.69869141 -157.94232422 23.69869141 -156.86328125 22.37109375 C-140.95234031 3.57794909 -117.67975619 -9.16115601 -94 -15 C-92.97390625 -15.2990625 -91.9478125 -15.598125 -90.890625 -15.90625 C-60.79783428 -23.83313146 -26.06679326 -16.08998195 0 0 Z M-148 19 C-149.19689453 20.06734375 -149.19689453 20.06734375 -150.41796875 21.15625 C-166.05999661 35.67921387 -175.93579401 55.50872204 -181 76 C-181.2990625 77.00289063 -181.598125 78.00578125 -181.90625 79.0390625 C-189.5833967 107.68619324 -182.53399337 139.31767126 -168.0859375 164.58203125 C-151.67308225 192.05237349 -125.91339945 210.82271101 -95.375 219.75 C-93.58907215 220.19061578 -91.79707121 220.60729703 -90 221 C-88.61748047 221.30744141 -88.61748047 221.30744141 -87.20703125 221.62109375 C-70.98923992 224.66324089 -53.98883623 223.87146273 -38 220 C-36.95102539 219.75056641 -36.95102539 219.75056641 -35.88085938 219.49609375 C-24.81833149 216.77827525 -14.92452361 212.55839559 -5 207 C-4.02546875 206.45601562 -3.0509375 205.91203125 -2.046875 205.3515625 C24.23521332 189.59767915 42.73461663 163.59678283 50.47998047 134.14501953 C58.47692709 101.15855334 53.20663763 69.40061239 35.78881836 40.51367188 C31.01714593 32.87222616 25.35332837 26.35768594 19 20 C18.09765625 19.07445312 17.1953125 18.14890625 16.265625 17.1953125 C-5.97781543 -4.49511422 -35.55672089 -14.12420461 -66.125 -14.25 C-67.35476562 -14.270625 -68.58453125 -14.29125 -69.8515625 -14.3125 C-99.47535466 -14.43696971 -126.90265303 -1.16505831 -148 19 Z " fill="#C32043" transform="translate(215,43)"/>
<path d="M0 0 C29.04 0 58.08 0 88 0 C81.63332275 15.91669311 65.88407528 26.71333063 50.75 33.5625 C44.44269716 35.81004612 39.99849606 35.3142023 33.8984375 32.640625 C26.56977648 28.89906036 20.14346456 24.45844108 14 19 C13.36449219 18.43539062 12.72898437 17.87078125 12.07421875 17.2890625 C7.31264425 12.79143337 3.37495657 7.61124997 0 2 C0 1.34 0 0.68 0 0 Z " fill="#FDFAFB" transform="translate(106,183)"/>
<path d="M0 0 C4.63319593 3.69033549 8.8420674 7.78928688 13 12 C13.61488281 12.61617187 14.22976562 13.23234375 14.86328125 13.8671875 C29.47805143 29.70313794 37.03444142 52.55886994 36.27734375 73.83203125 C34.85003685 98.78325096 24.49120333 120.57905752 6.125 137.75 C-13.60333263 154.75091337 -37.5190386 160.0314802 -63 159 C-80.70763044 157.48096308 -97.89935593 148.71376807 -111 137 C-111.83273438 136.26136719 -112.66546875 135.52273437 -113.5234375 134.76171875 C-129.50715995 119.73701964 -139.44279977 97.86109182 -140.23828125 75.91015625 C-140.45997397 64.23733556 -140.06652261 54.05942131 -136 43 C-135.57589844 41.82308594 -135.15179688 40.64617187 -134.71484375 39.43359375 C-126.00381685 17.32845307 -108.71555862 -0.12592505 -87.125 -9.8125 C-85.09737666 -10.57985285 -83.05441272 -11.30755854 -81 -12 C-79.84628906 -12.391875 -78.69257812 -12.78375 -77.50390625 -13.1875 C-51.53235974 -20.84339089 -22.06102945 -15.62451529 0 0 Z M-119 19 C-121.63418225 22.52233566 -123.86445569 26.15816652 -126 30 C-126.53367187 30.92296875 -127.06734375 31.8459375 -127.6171875 32.796875 C-137.16869048 50.37924367 -139.44709284 72.69097951 -134.61010742 92.13256836 C-133.60608925 95.51424943 -132.3854062 98.75733454 -131 102 C-130.71060547 102.68626465 -130.42121094 103.3725293 -130.12304688 104.07958984 C-126.03442863 113.50033921 -121.00646473 121.42027907 -114 129 C-113.41476563 129.65355469 -112.82953125 130.30710938 -112.2265625 130.98046875 C-98.90339401 145.14806341 -78.64297022 154.53291042 -59.265625 155.3046875 C-34.88556386 155.75823366 -12.3765183 149.79115509 5.9296875 133.0390625 C19.65719468 119.79717781 26.87226491 104.41946303 31 86 C31.19335938 85.24074219 31.38671875 84.48148437 31.5859375 83.69921875 C33.3865693 71.96113789 32.79233442 59.22988685 29 48 C28.58234375 46.53240234 28.58234375 46.53240234 28.15625 45.03515625 C22.08366419 24.69722877 7.42973673 8.35411267 -10.69140625 -2.25390625 C-48.61307603 -22.2668772 -90.77809234 -12.69537322 -119 19 Z " fill="#C31F43" transform="translate(202,76)"/>
<path d="M0 0 C0.66 0 1.32 0 2 0 C2.391875 0.804375 2.78375 1.60875 3.1875 2.4375 C4.8525473 5.40122736 4.8525473 5.40122736 8.6875 5.8125 C10.3271875 5.9053125 10.3271875 5.9053125 12 6 C12.33 5.34 12.66 4.68 13 4 C13 4.66 13 5.32 13 6 C13.66 6 14.32 6 15 6 C15.70074844 9.153368 16 11.72724974 16 15 C15.34 15.66 14.68 16.32 14 17 C11.375 16.625 11.375 16.625 9 16 C8.375 14.1875 8.375 14.1875 8 12 C8.66 11.01 9.32 10.02 10 9 C9.030625 8.87625 8.06125 8.7525 7.0625 8.625 C6.051875 8.41875 5.04125 8.2125 4 8 C3.67 7.34 3.34 6.68 3 6 C2.22324521 13.20339125 2.22324521 13.20339125 5 19.4375 C5.66 19.953125 6.32 20.46875 7 21 C7 22.32 7 23.64 7 25 C2.71 25 -1.58 25 -6 25 C-6 23.68 -6 22.36 -6 21 C-5.36578125 20.56042969 -4.7315625 20.12085938 -4.078125 19.66796875 C-1.06642935 17.25068671 -1.19637531 15.06949222 -0.75 11.3125 C-0.60046875 10.13300781 -0.4509375 8.95351562 -0.296875 7.73828125 C-0.19890625 6.83464844 -0.1009375 5.93101562 0 5 C-0.66 5 -1.32 5 -2 5 C-2.33 5.99 -2.66 6.98 -3 8 C-4.98 8.33 -6.96 8.66 -9 9 C-8.34 9.66 -7.68 10.32 -7 11 C-7.375 13.625 -7.375 13.625 -8 16 C-10.375 16.625 -10.375 16.625 -13 17 C-13.66 16.34 -14.32 15.68 -15 15 C-14.625 12.625 -14.625 12.625 -14 10 C-14 8.68 -14 7.36 -14 6 C-13.34 6 -12.68 6 -12 6 C-12 5.34 -12 4.68 -12 4 C-11.34 4 -10.68 4 -10 4 C-10 4.66 -10 5.32 -10 6 C-6.64566891 5.05066101 -3.30753495 4.10251165 0 3 C0 2.01 0 1.02 0 0 Z " fill="#CE4966" transform="translate(149,186)"/>
<path d="M0 0 C3 2.0625 3 2.0625 5 5 C5.1506132 9.29247606 4.66257079 11.22050496 1.875 14.5 C-1.91613014 16.47798094 -3.92797973 16.13111674 -8 15 C-9.9375 13.9375 -9.9375 13.9375 -11 12 C-11.75471698 5.20754717 -11.75471698 5.20754717 -9.4375 1.5 C-6.00863886 -0.61006839 -3.95779649 -0.62491523 0 0 Z " fill="#C21D41" transform="translate(66,83)"/>
<path d="M0 0 C5.28 0 10.56 0 16 0 C16.60642093 8.12604043 16.60642093 8.12604043 13.875 12.0625 C10.49714787 14.33887861 8.99022009 14.6791864 5 14 C1.8640843 12.22015595 1.15897264 11.47691793 0 8 C0 5.36 0 2.72 0 0 Z " fill="#C42548" transform="translate(244,138)"/>
<path d="M0 0 C1.45606519 4.52092968 0.27032841 7.51648796 -1 12 C5.435 11.505 5.435 11.505 12 11 C8.65295116 15.23303235 5.40026234 18.84329006 1 22 C0.01 21.67 -0.98 21.34 -2 21 C-1.34 19.68 -0.68 18.36 0 17 C-1.65 16.67 -3.3 16.34 -5 16 C-5.33 14.35 -5.66 12.7 -6 11 C-6.99 11.66 -7.98 12.32 -9 13 C-9.66 12.01 -10.32 11.02 -11 10 C-3.70159453 2.51708428 -3.70159453 2.51708428 0 0 Z " fill="#C32144" transform="translate(224,66)"/>
<path d="M0 0 C0.99 0.99 1.98 1.98 3 3 C1.68 3.99 0.36 4.98 -1 6 C1.97 6.495 1.97 6.495 5 7 C4.67 8.98 4.34 10.96 4 13 C5.32 12.34 6.64 11.68 8 11 C8.99 12.485 8.99 12.485 10 14 C8.04532248 15.33898399 6.0866421 16.67129047 4.125 18 C3.03445312 18.7425 1.94390625 19.485 0.8203125 20.25 C-2 22 -2 22 -4 22 C-2.66666667 18 -1.33333333 14 0 10 C-1.953125 10.06510417 -3.90625 10.13020833 -5.859375 10.1953125 C-8 10 -8 10 -12 8 C-8.04 5.36 -4.08 2.72 0 0 Z " fill="#C21D41" transform="translate(63,191)"/>
<path d="M0 0 C0 0.66 0 1.32 0 2 C-1.65 2.66 -3.3 3.32 -5 4 C-3.02 4.66 -1.04 5.32 1 6 C0.34 7.65 -0.32 9.3 -1 11 C0.65 11 2.3 11 4 11 C4 11.99 4 12.98 4 14 C-0.95 15.98 -5.9 17.96 -11 20 C-9.05372161 15.13430402 -7.07915761 12.13255363 -4 8 C-4.69867188 7.87882813 -5.39734375 7.75765625 -6.1171875 7.6328125 C-7.02726562 7.46523437 -7.93734375 7.29765625 -8.875 7.125 C-9.77992187 6.96257812 -10.68484375 6.80015625 -11.6171875 6.6328125 C-14 6 -14 6 -16 4 C-14.08959948 3.1319092 -12.17139263 2.28098217 -10.25 1.4375 C-9.18265625 0.96183594 -8.1153125 0.48617187 -7.015625 -0.00390625 C-4.01630163 -0.9946154 -2.86578759 -1.16161779 0 0 Z " fill="#C31E42" transform="translate(58,174)"/>
<path d="M0 0 C5.60461531 0.42089996 10.72086547 0.91613111 16 3 C15.01 5.97 14.02 8.94 13 12 C10.125 12.625 10.125 12.625 7 13 C6.34 12.34 5.68 11.68 5 11 C1.41656024 10.83322718 1.41656024 10.83322718 -2 11 C-1.67 9.68 -1.34 8.36 -1 7 C0.65 6.67 2.3 6.34 4 6 C4 5.34 4 4.68 4 4 C2.68 3.67 1.36 3.34 0 3 C0 2.01 0 1.02 0 0 Z " fill="#C83253" transform="translate(243,162)"/>
<path d="M0 0 C0.78375 0.04125 1.5675 0.0825 2.375 0.125 C2.375 1.115 2.375 2.105 2.375 3.125 C1.055 3.125 -0.265 3.125 -1.625 3.125 C-1.295 3.785 -0.965 4.445 -0.625 5.125 C1.39963255 5.77713292 1.39963255 5.77713292 3.375 6.125 C3.375 5.465 3.375 4.805 3.375 4.125 C4.365 3.795 5.355 3.465 6.375 3.125 C6.705 5.105 7.035 7.085 7.375 9.125 C9.025 9.455 10.675 9.785 12.375 10.125 C12.045 10.785 11.715 11.445 11.375 12.125 C10.055 12.125 8.735 12.125 7.375 12.125 C7.16875 12.764375 6.9625 13.40375 6.75 14.0625 C5.375 16.125 5.375 16.125 2.375 17 C1.385 17.04125 0.395 17.0825 -0.625 17.125 C-3.38427344 14.36572656 -3.14283243 11.91345948 -3.625 8.125 C-3.955 7.795 -4.285 7.465 -4.625 7.125 C-4.8125 4.6875 -4.8125 4.6875 -4.625 2.125 C-2.625 0.125 -2.625 0.125 0 0 Z " fill="#C72E4F" transform="translate(92.625,51.875)"/>
<path d="M0 0 C0.33 1.32 0.66 2.64 1 4 C-0.65 4.66 -2.3 5.32 -4 6 C-4 6.99 -4 7.98 -4 9 C-2.35 9 -0.7 9 1 9 C1 9.99 1 10.98 1 12 C-4.28 12 -9.56 12 -15 12 C-15 4 -15 4 -13 1 C-6.875 0.5625 -6.875 0.5625 -4 2 C-1.88316159 1.10836423 -1.88316159 1.10836423 0 0 Z " fill="#C21A3F" transform="translate(53,134)"/>
<path d="M0 0 C3.45308687 1.51270549 5.95624379 3.54720642 8.75 6.0625 C9.54921875 6.77535156 10.3484375 7.48820312 11.171875 8.22265625 C11.77515625 8.80917969 12.3784375 9.39570312 13 10 C13 10.33 13 10.66 13 11 C8.71 11.66 4.42 12.32 0 13 C1.32 14.32 2.64 15.64 4 17 C3.67 17.99 3.34 18.98 3 20 C-0.39859703 18.53033642 -2.64963709 16.61962486 -5.25 14 C-5.95640625 13.29875 -6.6628125 12.5975 -7.390625 11.875 C-9 10 -9 10 -9 8 C-2.565 7.505 -2.565 7.505 4 7 C2.35 5.68 0.7 4.36 -1 3 C-0.67 2.01 -0.34 1.02 0 0 Z " fill="#C32044" transform="translate(73,66)"/>
<path d="M0 0 C2 2 2 2 2.4375 5.375 C2.99431773 8.96338094 3.59615375 10.38712365 6 13 C4.3125 13.6875 4.3125 13.6875 2 14 C-0.75 12.5625 -0.75 12.5625 -3 11 C-2.67 12.65 -2.34 14.3 -2 16 C-2.99 16.33 -3.98 16.66 -5 17 C-5.86555948 14.90049414 -6.71711277 12.7952093 -7.5625 10.6875 C-8.27599609 8.92986328 -8.27599609 8.92986328 -9.00390625 7.13671875 C-10 4 -10 4 -9 1 C-5.75778445 -0.08073852 -3.39597063 -0.21676408 0 0 Z " fill="#C1183D" transform="translate(118,42)"/>
<path d="M0 0 C-0.99 3.96 -1.98 7.92 -3 12 C-0.69 11.34 1.62 10.68 4 10 C4.33 10.99 4.66 11.98 5 13 C2.87717331 14.00460531 0.75166979 15.00355602 -1.375 16 C-2.55835938 16.556875 -3.74171875 17.11375 -4.9609375 17.6875 C-8 19 -8 19 -10 19 C-9.71517632 17.58194169 -9.42181856 16.16559621 -9.125 14.75 C-8.96257812 13.96109375 -8.80015625 13.1721875 -8.6328125 12.359375 C-8.00849925 10.03168856 -7.15161458 8.10968048 -6 6 C-6.928125 6.515625 -7.85625 7.03125 -8.8125 7.5625 C-12 9 -12 9 -15 8 C-14 5 -14 5 -11.6015625 3.61328125 C-10.12816406 2.96939453 -10.12816406 2.96939453 -8.625 2.3125 C-7.64789063 1.87550781 -6.67078125 1.43851562 -5.6640625 0.98828125 C-3 0 -3 0 0 0 Z " fill="#C31E42" transform="translate(249,97)"/>
<path d="M0 0 C3.63 0 7.26 0 11 0 C11 1.32 11 2.64 11 4 C8.69 4 6.38 4 4 4 C4 4.66 4 5.32 4 6 C5.98 6 7.96 6 10 6 C10 7.32 10 8.64 10 10 C7.69 10 5.38 10 3 10 C3 10.66 3 11.32 3 12 C5.31 12.33 7.62 12.66 10 13 C10 13.99 10 14.98 10 16 C6.37 16 2.74 16 -1 16 C-1.07411518 10.51547704 -1.13494249 5.39097682 0 0 Z " fill="#C62A4C" transform="translate(154,37)"/>
<path d="M0 0 C2.64 0 5.28 0 8 0 C9.56935594 3.13871188 9.35201103 5.53855822 9 9 C6.55401113 12.38121991 5.10703441 13.76936783 1 14.625 C-3.10703441 13.76936783 -4.55401113 12.38121991 -7 9 C-7.3125 5.1875 -7.3125 5.1875 -7 2 C-5.68 2 -4.36 2 -3 2 C-2.67 4.31 -2.34 6.62 -2 9 C-0.02 9 1.96 9 4 9 C4 8.01 4 7.02 4 6 C2.68 6 1.36 6 0 6 C0 4.02 0 2.04 0 0 Z " fill="#C21C41" transform="translate(45,150)"/>
<path d="M0 0 C1.5 1.375 1.5 1.375 3 3 C3 3.66 3 4.32 3 5 C4.98 5 6.96 5 9 5 C8.690625 5.515625 8.38125 6.03125 8.0625 6.5625 C6.70940713 9.66665423 6.38640576 12.65115007 6 16 C4.906875 15.835 3.81375 15.67 2.6875 15.5 C-0.87525873 14.93281816 -0.87525873 14.93281816 -4 15 C-4.433125 13.2984375 -4.433125 13.2984375 -4.875 11.5625 C-5.24625 10.386875 -5.6175 9.21125 -6 8 C-6.66 7.67 -7.32 7.34 -8 7 C-8 6.34 -8 5.68 -8 5 C-6.576875 4.87625 -6.576875 4.87625 -5.125 4.75 C-1.89538209 4.34925077 -1.89538209 4.34925077 -0.625 1.9375 C-0.41875 1.298125 -0.2125 0.65875 0 0 Z " fill="#C31F42" transform="translate(149,242)"/>
<path d="M0 0 C5.73058676 1.14611735 10.71024662 2.52394523 16 5 C14.68 8.3 13.36 11.6 12 15 C11.01 15 10.02 15 9 15 C9.52268466 12.23723823 10.10869587 9.6739124 11 7 C10.01 7 9.02 7 8 7 C7.67 8.65 7.34 10.3 7 12 C6.01 12 5.02 12 4 12 C4 9.69 4 7.38 4 5 C1.89767656 7.8684413 1.89767656 7.8684413 1 11 C-0.32 10.67 -1.64 10.34 -3 10 C-2.01 6.7 -1.02 3.4 0 0 Z " fill="#C31E42" transform="translate(239,176)"/>
<path d="M0 0 C4.04131267 1.34710422 4.90288434 3.38428334 7 7 C7 7.99 7 8.98 7 10 C5.125 9.6875 5.125 9.6875 3 9 C2.34 8.01 1.68 7.02 1 6 C0.01 6.495 0.01 6.495 -1 7 C-0.34 8.65 0.32 10.3 1 12 C0.01 12.33 -0.98 12.66 -2 13 C-2.66 11.35 -3.32 9.7 -4 8 C-4.66 8.66 -5.32 9.32 -6 10 C-5.01 11.98 -4.02 13.96 -3 16 C-3.99 16.66 -4.98 17.32 -6 18 C-7.98 15.03 -9.96 12.06 -12 9 C-9.54424773 6.54424773 -7.33614679 4.69748746 -4.5 2.75 C-3.7265625 2.20859375 -2.953125 1.6671875 -2.15625 1.109375 C-1.4446875 0.74328125 -0.733125 0.3771875 0 0 Z " fill="#C21D41" transform="translate(238,83)"/>
<path d="M0 0 C3.85674376 1.4756237 5.21823735 3.47006893 7.25 7 C7.77078125 7.886875 8.2915625 8.77375 8.828125 9.6875 C10 12 10 12 10 14 C3.6 18.06153846 3.6 18.06153846 0.5625 17.75 C0.046875 17.5025 -0.46875 17.255 -1 17 C-1 16.34 -1 15.68 -1 15 C0.98 14.34 2.96 13.68 5 13 C5 12.01 5 11.02 5 10 C1.535 11.485 1.535 11.485 -2 13 C-2 11.68 -2 10.36 -2 9 C-1.01 8.34 -0.02 7.68 1 7 C0.67 6.34 0.34 5.68 0 5 C-0.598125 5.495 -1.19625 5.99 -1.8125 6.5 C-4 8 -4 8 -7 8 C-6.875 6.25 -6.875 6.25 -6 4 C-2.9375 1.75 -2.9375 1.75 0 0 Z " fill="#C31E42" transform="translate(201,226)"/>
<path d="M0 0 C3.45925163 1.2491742 6.14693203 2.67527795 9 5 C8.67 5.99 8.34 6.98 8 8 C7.236875 7.690625 6.47375 7.38125 5.6875 7.0625 C3.81210323 6.32106407 1.91315348 5.63771783 0 5 C0.680625 5.5775 1.36125 6.155 2.0625 6.75 C2.701875 7.4925 3.34125 8.235 4 9 C3.75 11.25 3.75 11.25 3 13 C1.02 12.01 -0.96 11.02 -3 10 C-1.88820837 13.33537489 -0.52588702 14.63707344 2 17 C0.234375 17.65234375 0.234375 17.65234375 -2 18 C-3.921875 17.00390625 -3.921875 17.00390625 -5.75 15.5625 C-6.67039063 14.85287109 -6.67039063 14.85287109 -7.609375 14.12890625 C-8.06828125 13.75636719 -8.5271875 13.38382813 -9 13 C-7.47987323 7.59510481 -3.72614782 4.01507372 0 0 Z " fill="#C21D41" transform="translate(211,56)"/>
<path d="M0 0 C0 1.32 0 2.64 0 4 C-2.31 4.33 -4.62 4.66 -7 5 C-7 5.66 -7 6.32 -7 7 C-4.69 7 -2.38 7 0 7 C0 7.99 0 8.98 0 10 C-0.804375 10.12375 -1.60875 10.2475 -2.4375 10.375 C-3.283125 10.58125 -4.12875 10.7875 -5 11 C-5.33 11.66 -5.66 12.32 -6 13 C-3.03 13 -0.06 13 3 13 C3 13.99 3 14.98 3 16 C-0.96 16.33 -4.92 16.66 -9 17 C-9.66 12.05 -10.32 7.1 -11 2 C-4 0 -4 0 0 0 Z " fill="#C31E42" transform="translate(135,37)"/>
<path d="M0 0 C1.9375 1.125 1.9375 1.125 3 3 C3 9.15646361 0.68551691 12.36947876 -3 17 C-3.99 16.67 -4.98 16.34 -6 16 C-4.87548273 13.0280615 -3.77706209 10.66559313 -2 8 C-2 6.68 -2 5.36 -2 4 C-3.32 4 -4.64 4 -6 4 C-7.57518451 5.74477633 -7.57518451 5.74477633 -8.75 8 C-9.17796875 8.7425 -9.6059375 9.485 -10.046875 10.25 C-10.36140625 10.8275 -10.6759375 11.405 -11 12 C-11.99 11.67 -12.98 11.34 -14 11 C-11.2482665 3.20342174 -8.74440754 -2.14148756 0 0 Z " fill="#C31F43" transform="translate(100,228)"/>
<path d="M0 0 C-0.33 0.99 -0.66 1.98 -1 3 C-2.98 3 -4.96 3 -7 3 C-7 3.66 -7 4.32 -7 5 C-6.030625 5.309375 -5.06125 5.61875 -4.0625 5.9375 C-1 7 -1 7 0 8 C0.1875 10.4375 0.1875 10.4375 0 13 C-2 15 -2 15 -3.9453125 15.1953125 C-5.96354167 15.13020833 -7.98177083 15.06510417 -10 15 C-10.33 14.34 -10.66 13.68 -11 13 C-10.67 12.34 -10.34 11.68 -10 11 C-7.03 11.495 -7.03 11.495 -4 12 C-5.93254772 9.9754262 -7.63158688 8.57894208 -10 7 C-10.375 4 -10.375 4 -10 1 C-6.1496895 -1.56687367 -4.41430237 -0.83288724 0 0 Z " fill="#C42547" transform="translate(150,37)"/>
<path d="M0 0 C3.77786105 1.33799245 5.55612698 2.8998408 8 6.0625 C8.64425021 9.36428235 8.33107086 10.55209909 6.5 13.375 C6.005 13.931875 5.51 14.48875 5 15.0625 C3.68 14.7325 2.36 14.4025 1 14.0625 C1.66 13.0725 2.32 12.0825 3 11.0625 C3.16699232 7.93728167 3.16699232 7.93728167 3 5.0625 C1.02 5.0625 -0.96 5.0625 -3 5.0625 C-3.66 6.7125 -4.32 8.3625 -5 10.0625 C-6.32 10.0625 -7.64 10.0625 -9 10.0625 C-8.74233354 6.28339199 -8.37804992 4.48375562 -5.8125 1.625 C-3 0.0625 -3 0.0625 0 0 Z " fill="#C42447" transform="translate(239,189.9375)"/>
<path d="M0 0 C3.5 0.1875 3.5 0.1875 7 1 C9 4 9 4 9 7 C6 7 6 7 3.8125 5 C3.214375 4.34 2.61625 3.68 2 3 C2.350625 3.721875 2.70125 4.44375 3.0625 5.1875 C4.11788755 8.35366266 4.01864664 9.85917285 3 13 C2.34 13.66 1.68 14.32 1 15 C-1.8382362 14.78167414 -3.53422087 14.35334968 -5.8125 12.625 C-7 11 -7 11 -7 8 C-6.01 8 -5.02 8 -4 8 C-3.67 8.66 -3.34 9.32 -3 10 C-2.01 10.33 -1.02 10.66 0 11 C-0.33 10.443125 -0.66 9.88625 -1 9.3125 C-2.15249005 6.64736676 -2.30274405 4.87606851 -2 2 C-1.34 1.34 -0.68 0.68 0 0 Z " fill="#C31F43" transform="translate(82,219)"/>
<path d="M0 0 C-0.33 1.32 -0.66 2.64 -1 4 C-1.99 4 -2.98 4 -4 4 C-3.34 6.97 -2.68 9.94 -2 13 C-5.89006773 11.61219205 -8.96558708 9.7847773 -12.3125 7.375 C-13.19550781 6.74335937 -14.07851563 6.11171875 -14.98828125 5.4609375 C-15.65214844 4.97882813 -16.31601562 4.49671875 -17 4 C-14.63699651 1.63699651 -13.4201502 1.48566556 -10.1875 0.875 C-8.90939453 0.62363281 -8.90939453 0.62363281 -7.60546875 0.3671875 C-5.03156189 0.004448 -2.59538412 -0.06523407 0 0 Z " fill="#C32043" transform="translate(57,120)"/>
<path d="M0 0 C5.28 2.31 10.56 4.62 16 7 C15.67 7.99 15.34 8.98 15 10 C9.25 9.125 9.25 9.125 7 8 C7.33 10.64 7.66 13.28 8 16 C7.01 16.33 6.02 16.66 5 17 C4.16301614 14.54285453 3.33027576 12.08441143 2.5 9.625 C2.26152344 8.92632812 2.02304688 8.22765625 1.77734375 7.5078125 C0 2.2265625 0 2.2265625 0 0 Z " fill="#C21A3F" transform="translate(210,219)"/>
<path d="M0 0 C0.33 0 0.66 0 1 0 C1.03738281 0.73605469 1.07476562 1.47210938 1.11328125 2.23046875 C1.48966551 9.63438588 1.48966551 9.63438588 5 16 C5.66 16.33 6.32 16.66 7 17 C7 18.32 7 19.64 7 21 C2.71 21 -1.58 21 -6 21 C-6 19.68 -6 18.36 -6 17 C-4.70264493 15.95374591 -3.36733028 14.95298777 -2 14 C-0.99740493 10.99221479 -0.69685358 8.46179353 -0.4375 5.3125 C-0.35371094 4.31863281 -0.26992187 3.32476562 -0.18359375 2.30078125 C-0.12300781 1.54152344 -0.06242188 0.78226563 0 0 Z " fill="#CD4462" transform="translate(149,190)"/>
<path d="M0 0 C1.32 0 2.64 0 4 0 C5.19287411 3.87684087 6 6.91621923 6 11 C4.68 11 3.36 11 2 11 C2 10.01 2 9.02 2 8 C0.96875 8.33 -0.0625 8.66 -1.125 9 C-4.48426709 9.9715192 -7.49106202 10.17116771 -11 10 C-11 9.01 -11 8.02 -11 7 C-10.28972656 6.82984375 -9.57945312 6.6596875 -8.84765625 6.484375 C-7.92855469 6.24203125 -7.00945312 5.9996875 -6.0625 5.75 C-5.14597656 5.51796875 -4.22945312 5.2859375 -3.28515625 5.046875 C-0.80848559 4.23367434 -0.80848559 4.23367434 -0.18359375 1.890625 C-0.12300781 1.26671875 -0.06242188 0.6428125 0 0 Z " fill="#C6294B" transform="translate(252,115)"/>
<path d="M0 0 C3.375 -0.125 3.375 -0.125 7 0 C7.66 0.66 8.32 1.32 9 2 C8.70241581 4.3381615 8.36760731 6.67182036 8 9 C8.33 9.99 8.66 10.98 9 12 C7.68 11.34 6.36 10.68 5 10 C5 9.34 5 8.68 5 8 C4.34 8 3.68 8 3 8 C3 9.32 3 10.64 3 12 C2.01 12 1.02 12 0 12 C0 8.04 0 4.08 0 0 Z " fill="#FCF5F7" transform="translate(139,109)"/>
<path d="M0 0 C3.89364717 0.57683662 6.01189041 2.54821777 9 5 C9.99 5.33 10.98 5.66 12 6 C12 5.34 12 4.68 12 4 C12.99 4.33 13.98 4.66 15 5 C14.42647107 8.87132028 12.51295648 11.08172796 10 14 C9.01 13.67 8.02 13.34 7 13 C6.9690625 11.9171875 6.9690625 11.9171875 6.9375 10.8125 C5.55987495 6.67962484 2.60643381 5.21282492 -1 3 C-0.67 2.01 -0.34 1.02 0 0 Z " fill="#C31F43" transform="translate(225,204)"/>
<path d="M0 0 C3.3 0.99 6.6 1.98 10 3 C10 3.99 10 4.98 10 6 C8.35 6 6.7 6 5 6 C4.01 9.63 3.02 13.26 2 17 C0.68 16.67 -0.64 16.34 -2 16 C-1.01 12.04 -0.02 8.08 1 4 C0.34 3.67 -0.32 3.34 -1 3 C-0.67 2.01 -0.34 1.02 0 0 Z " fill="#C32044" transform="translate(183,42)"/>
<path d="M0 0 C7.42857143 -0.14285714 7.42857143 -0.14285714 11 1 C10.67 2.32 10.34 3.64 10 5 C8.68 5 7.36 5 6 5 C5.34 8.63 4.68 12.26 4 16 C3.01 16 2.02 16 1 16 C0.80705592 11.17639811 1.24252386 7.50353262 3 3 C2.01 3 1.02 3 0 3 C0 2.01 0 1.02 0 0 Z " fill="#C32144" transform="translate(169,39)"/>
<path d="M0 0 C0.99 0 1.98 0 3 0 C3 1.32 3 2.64 3 4 C6.63 5.32 10.26 6.64 14 8 C13.67 8.99 13.34 9.98 13 11 C8.51474352 10.343621 4.33085971 9.29925791 0 8 C0 8.66 0 9.32 0 10 C-0.99 10 -1.98 10 -3 10 C-2.69201674 8.51988629 -2.378482 7.04092675 -2.0625 5.5625 C-1.88847656 4.73878906 -1.71445312 3.91507812 -1.53515625 3.06640625 C-1 1 -1 1 0 0 Z " fill="#C21C40" transform="translate(46,105)"/>
<path d="M0 0 C1.32 0.33 2.64 0.66 4 1 C2.02 4.96 0.04 8.92 -2 13 C-0.02 13.66 1.96 14.32 4 15 C3.67 15.99 3.34 16.98 3 18 C-0.48539917 17.35455571 -3.02819057 15.89865603 -6 14 C-5.41892368 10.2397015 -4.34800504 7.46964968 -2.4375 4.1875 C-1.98246094 3.39730469 -1.52742187 2.60710938 -1.05859375 1.79296875 C-0.53458984 0.90544922 -0.53458984 0.90544922 0 0 Z " fill="#C21C40" transform="translate(197,48)"/>
<path d="M0 0 C0.763125 0.20625 1.52625 0.4125 2.3125 0.625 C2.9375 3.5 2.9375 3.5 3.3125 6.625 C1.3125 8.625 1.3125 8.625 -1.1875 8.875 C-3.6875 8.625 -3.6875 8.625 -5.6875 6.625 C-6 4.125 -6 4.125 -5.6875 1.625 C-2.6875 -0.375 -2.6875 -0.375 0 0 Z " fill="#FBF3F5" transform="translate(63.6875,86.375)"/>
<path d="M0 0 C0.433125 0.45375 0.86625 0.9075 1.3125 1.375 C3.10798342 3.20024334 3.10798342 3.20024334 6 5 C5.34 6.98 4.68 8.96 4 11 C1.69 11 -0.62 11 -3 11 C-3.66 8.69 -4.32 6.38 -5 4 C-4.01 3.67 -3.02 3.34 -2 3 C-1.34 2.01 -0.68 1.02 0 0 Z " fill="#C31E42" transform="translate(123,241)"/>
<path d="M0 0 C0.66 0 1.32 0 2 0 C2.33 0.66 2.66 1.32 3 2 C5.01669827 3.13350534 5.01669827 3.13350534 7 4 C6.67 4.61875 6.34 5.2375 6 5.875 C4.85806765 7.91018344 4.85806765 7.91018344 5 10 C2.36 10 -0.28 10 -3 10 C-3.144375 9.21625 -3.28875 8.4325 -3.4375 7.625 C-3.87798925 5.03578982 -3.87798925 5.03578982 -5 3 C-4.360625 2.87625 -3.72125 2.7525 -3.0625 2.625 C-2.0415625 2.315625 -2.0415625 2.315625 -1 2 C-0.67 1.34 -0.34 0.68 0 0 Z " fill="#C21D41" transform="translate(175,242)"/>
<path d="M0 0 C0.66 0 1.32 0 2 0 C2.08086147 1.79093191 2.13912702 3.58289628 2.1875 5.375 C2.22230469 6.37273437 2.25710937 7.37046875 2.29296875 8.3984375 C2.19628906 9.25695312 2.09960938 10.11546875 2 11 C-1 13 -1 13 -3.625 12.6875 C-6 12 -6 12 -7 11 C-7.07205511 9.31391034 -7.08386068 7.62499341 -7.0625 5.9375 C-7.05347656 5.01839844 -7.04445313 4.09929687 -7.03515625 3.15234375 C-7.02355469 2.44207031 -7.01195313 1.73179687 -7 1 C-6.34 1 -5.68 1 -5 1 C-4.67 3.64 -4.34 6.28 -4 9 C-3.01 9 -2.02 9 -1 9 C-0.67 6.03 -0.34 3.06 0 0 Z " fill="#F4D9DF" transform="translate(129,162)"/>
<path d="M0 0 C-0.33 1.32 -0.66 2.64 -1 4 C-2.7491497 4.33776684 -4.49936145 4.67003671 -6.25 5 C-7.71179688 5.2784375 -7.71179688 5.2784375 -9.203125 5.5625 C-12 6 -12 6 -16 6 C-15.67 4.68 -15.34 3.36 -15 2 C-9.92523206 0.73694665 -5.27203646 -0.27036084 0 0 Z " fill="#C52548" transform="translate(56,166)"/>
<path d="M0 0 C0.66 0 1.32 0 2 0 C2.6708712 1.6232687 3.33657029 3.24867578 4 4.875 C4.556875 6.23238281 4.556875 6.23238281 5.125 7.6171875 C6 10 6 10 6 12 C3.36 11.34 0.72 10.68 -2 10 C-2 10.66 -2 11.32 -2 12 C-2.66 12 -3.32 12 -4 12 C-2.66666667 8 -1.33333333 4 0 0 Z " fill="#F8E7EB" transform="translate(168,109)"/>
<path d="M0 0 C0.66 0 1.32 0 2 0 C2.67119549 1.4562545 3.33681807 2.91507867 4 4.375 C4.556875 5.59316406 4.556875 5.59316406 5.125 6.8359375 C6 9 6 9 6 11 C3.69 10.67 1.38 10.34 -1 10 C-1.33 10.66 -1.66 11.32 -2 12 C-2.66 12 -3.32 12 -4 12 C-3.33501617 7.61110675 -1.81242323 4.0188515 0 0 Z " fill="#F4D8DE" transform="translate(177,163)"/>
<path d="M0 0 C2.64 0 5.28 0 8 0 C8 0.66 8 1.32 8 2 C6.02 2 4.04 2 2 2 C2 2.99 2 3.98 2 5 C3.65 5 5.3 5 7 5 C7 5.66 7 6.32 7 7 C5.35 7 3.7 7 2 7 C2 7.99 2 8.98 2 10 C3.98 10 5.96 10 8 10 C8 10.66 8 11.32 8 12 C5.36 12 2.72 12 0 12 C0 8.04 0 4.08 0 0 Z " fill="#FEFDFD" transform="translate(129,109)"/>
<path d="M0 0 C3.45201639 1.47721422 5.64961936 3.43794001 8.25 6.125 C8.95640625 6.84945312 9.6628125 7.57390625 10.390625 8.3203125 C11.18726563 9.15175781 11.18726563 9.15175781 12 10 C11.67 10.99 11.34 11.98 11 13 C7.54798361 11.52278578 5.35038064 9.56205999 2.75 6.875 C2.04359375 6.15054688 1.3371875 5.42609375 0.609375 4.6796875 C-0.18726563 3.84824219 -0.18726563 3.84824219 -1 3 C-0.67 2.01 -0.34 1.02 0 0 Z " fill="#C31E42" transform="translate(219,211)"/>
<path d="M0 0 C0.99 0.33 1.98 0.66 3 1 C1.52202738 4.67056937 -0.47615477 6.41085783 -3.625 8.75 C-4.44226563 9.36359375 -5.25953125 9.9771875 -6.1015625 10.609375 C-6.72804688 11.06828125 -7.35453125 11.5271875 -8 12 C-8.99 11.01 -9.98 10.02 -11 9 C-9.23977508 7.46690087 -7.46646537 5.94881299 -5.6875 4.4375 C-4.70136719 3.59058594 -3.71523437 2.74367187 -2.69921875 1.87109375 C-1.80847656 1.25363281 -0.91773437 0.63617188 0 0 Z " fill="#C21D41" transform="translate(74,208)"/>
<path d="M0 0 C10.36117381 3.18284424 10.36117381 3.18284424 14 6 C14 6.99 14 7.98 14 9 C10.14974121 8.39644592 7.13898841 7.23227397 3.6875 5.4375 C2.80449219 4.98246094 1.92148437 4.52742188 1.01171875 4.05859375 C0.34785156 3.70925781 -0.31601562 3.35992187 -1 3 C-0.67 2.01 -0.34 1.02 0 0 Z " fill="#C31E42" transform="translate(49,98)"/>
<path d="M0 0 C1.98 0 3.96 0 6 0 C6 0.66 6 1.32 6 2 C4.68 2 3.36 2 2 2 C2.66 2.556875 3.32 3.11375 4 3.6875 C6 6 6 6 6.25 8.75 C6.1675 9.4925 6.085 10.235 6 11 C4.02 11.33 2.04 11.66 0 12 C-0.33 11.01 -0.66 10.02 -1 9 C0.65 9 2.3 9 4 9 C4 8.34 4 7.68 4 7 C1.525 6.01 1.525 6.01 -1 5 C-0.67 3.35 -0.34 1.7 0 0 Z " fill="#F6DEE3" transform="translate(135,163)"/>
<path d="M0 0 C0.99 0 1.98 0 3 0 C3.33 1.65 3.66 3.3 4 5 C4.66 5 5.32 5 6 5 C6.33 3.35 6.66 1.7 7 0 C7.99 0 8.98 0 10 0 C9.52269162 1.4589426 9.04308958 2.91713496 8.5625 4.375 C8.29566406 5.18710938 8.02882813 5.99921875 7.75390625 6.8359375 C7 9 7 9 6 11 C5.34 11 4.68 11 4 11 C3.32880451 9.5437455 2.66318193 8.08492133 2 6.625 C1.62875 5.81289062 1.2575 5.00078125 0.875 4.1640625 C0 2 0 2 0 0 Z " fill="#F9E9EC" transform="translate(116,109)"/>
<path d="M0 0 C1.65 0 3.3 0 5 0 C5 0.99 5 1.98 5 3 C3.68 2.67 2.36 2.34 1 2 C2.63412443 3.70840281 3.86906094 4.93453047 6 6 C6.042721 7.66611905 6.04063832 9.33382885 6 11 C5 12 5 12 1.9375 12.0625 C0.968125 12.041875 -0.00125 12.02125 -1 12 C-1 11.01 -1 10.02 -1 9 C0.65 9.33 2.3 9.66 4 10 C3.154375 9.278125 2.30875 8.55625 1.4375 7.8125 C-1 5 -1 5 -0.8125 2.1875 C-0.544375 1.465625 -0.27625 0.74375 0 0 Z " fill="#F9EAED" transform="translate(177,109)"/>
<path d="M0 0 C2.31 0 4.62 0 7 0 C7 0.66 7 1.32 7 2 C5.35 2 3.7 2 2 2 C2 2.66 2 3.32 2 4 C3.65 4 5.3 4 7 4 C7 4.66 7 5.32 7 6 C5.35 6 3.7 6 2 6 C2 6.66 2 7.32 2 8 C3.65 8 5.3 8 7 8 C7 8.66 7 9.32 7 10 C4.69 10 2.38 10 0 10 C0 6.7 0 3.4 0 0 Z " fill="#C32043" transform="translate(142,137)"/>
<path d="M0 0 C2.64 0 5.28 0 8 0 C8 0.99 8 1.98 8 3 C7.01 3 6.02 3 5 3 C5 5.97 5 8.94 5 12 C4.01 12 3.02 12 2 12 C2 8.7 2 5.4 2 2 C1.34 2 0.68 2 0 2 C0 1.34 0 0.68 0 0 Z " fill="#F2CFD7" transform="translate(156,109)"/>
<path d="M0 0 C10.55808656 -0.18451025 10.55808656 -0.18451025 15 1 C15 1.99 15 2.98 15 4 C9.84828377 4.09038099 5.08086796 3.84681133 0 3 C0 2.01 0 1.02 0 0 Z " fill="#C01338" transform="translate(244,155)"/>
<path d="M0 0 C2.64 0 5.28 0 8 0 C8.042721 1.66611905 8.04063832 3.33382885 8 5 C7 6 7 6 4 6.125 C1 6 1 6 0 5 C-0.04063832 3.33382885 -0.042721 1.66611905 0 0 Z " fill="#FDF8F9" transform="translate(248,142)"/>
<path d="M0 0 C2.64 0 5.28 0 8 0 C8 0.99 8 1.98 8 3 C7.01 3 6.02 3 5 3 C5 5.97 5 8.94 5 12 C4.34 12 3.68 12 3 12 C3 9.03 3 6.06 3 3 C2.01 3 1.02 3 0 3 C0 2.01 0 1.02 0 0 Z " fill="#F6DFE4" transform="translate(158,162)"/>
<path d="M0 0 C2.64 0 5.28 0 8 0 C8 0.99 8 1.98 8 3 C7.01 3 6.02 3 5 3 C5 5.97 5 8.94 5 12 C4.34 12 3.68 12 3 12 C3 9.03 3 6.06 3 3 C2.01 3 1.02 3 0 3 C0 2.01 0 1.02 0 0 Z " fill="#F6E0E5" transform="translate(143,162)"/>
<path d="M0 0 C3.375 -0.125 3.375 -0.125 7 0 C7.66 0.66 8.32 1.32 9 2 C8.625 4.125 8.625 4.125 8 6 C6.33333333 6 4.66666667 6 3 6 C3 4.68 3 3.36 3 2 C2.34 1.67 1.68 1.34 1 1 C1 4.63 1 8.26 1 12 C0.67 12 0.34 12 0 12 C0 8.04 0 4.08 0 0 Z " fill="#E08EA0" transform="translate(139,109)"/>
<path d="M0 0 C0.99 0 1.98 0 3 0 C3 4.29 3 8.58 3 13 C2.01 13 1.02 13 0 13 C0 8.71 0 4.42 0 0 Z " fill="#EDBEC8" transform="translate(153,162)"/>
<path d="M0 0 C0.99 0 1.98 0 3 0 C3 4.29 3 8.58 3 13 C2.01 13 1.02 13 0 13 C0 8.71 0 4.42 0 0 Z " fill="#EDBDC7" transform="translate(116,162)"/>
<path d="M0 0 C3 2 3 2 4 5 C6.00016466 6.20882096 6.00016466 6.20882096 8 7 C8 7.66 8 8.32 8 9 C6.35 9 4.7 9 3 9 C2.67 9.66 2.34 10.32 2 11 C1.34 10.67 0.68 10.34 0 10 C0 6.7 0 3.4 0 0 Z " fill="#C62D4E" transform="translate(131,163)"/>
<path d="M0 0 C2.31 0 4.62 0 7 0 C7 0.66 7 1.32 7 2 C6.34 2 5.68 2 5 2 C5 4.64 5 7.28 5 10 C4.01 10 3.02 10 2 10 C2 7.36 2 4.72 2 2 C1.34 2 0.68 2 0 2 C0 1.34 0 0.68 0 0 Z " fill="#CD4563" transform="translate(151,137)"/>
<path d="M0 0 C2.64 0.33 5.28 0.66 8 1 C7.3125 2.9375 7.3125 2.9375 6 5 C3.5 5.875 3.5 5.875 1 6 C0.34 5.34 -0.32 4.68 -1 4 C-0.625 1.875 -0.625 1.875 0 0 Z " fill="#D35E77" transform="translate(158,197)"/>
<path d="M0 0 C2.64 0 5.28 0 8 0 C7.67 1.32 7.34 2.64 7 4 C4.625 4.625 4.625 4.625 2 5 C1.34 4.34 0.68 3.68 0 3 C0 2.01 0 1.02 0 0 Z " fill="#C83455" transform="translate(134,198)"/>
<path d="M0 0 C0.33 0 0.66 0 1 0 C1.06058594 0.73605469 1.12117187 1.47210938 1.18359375 2.23046875 C1.26738281 3.20628906 1.35117188 4.18210938 1.4375 5.1875 C1.51871094 6.15042969 1.59992188 7.11335937 1.68359375 8.10546875 C1.97666151 10.78649602 2.42703754 13.3662986 3 16 C1.35 16 -0.3 16 -2 16 C-1.34 10.72 -0.68 5.44 0 0 Z " fill="#C0163B" transform="translate(149,190)"/>
<path d="M0 0 C3.63 0 7.26 0 11 0 C11.33 1.65 11.66 3.3 12 5 C10.02 5 8.04 5 6 5 C6 4.01 6 3.02 6 2 C3.03 1.505 3.03 1.505 0 1 C0 0.67 0 0.34 0 0 Z " fill="#DF8A9C" transform="translate(153,193)"/>
<path d="M0 0 C0.66 0 1.32 0 2 0 C2.66 2.31 3.32 4.62 4 7 C2.35 7.33 0.7 7.66 -1 8 C-2.2077558 4.37673261 -1.54311128 3.35853631 0 0 Z " fill="#F1CBD3" transform="translate(168,109)"/>
<path d="M0 0 C0.66 0 1.32 0 2 0 C2.1953125 1.98567708 2.390625 3.97135417 2.5859375 5.95703125 C2.92665391 8.29988142 2.92665391 8.29988142 5 11 C3.35 10.67 1.7 10.34 0 10 C0 6.7 0 3.4 0 0 Z " fill="#FBF2F4" transform="translate(122,163)"/>
<path d="M0 0 C0.66 0 1.32 0 2 0 C2 0.99 2 1.98 2 3 C2.99 3.33 3.98 3.66 5 4 C3.68 4.99 2.36 5.98 1 7 C-0.32 5.68 -1.64 4.36 -3 3 C-2.01 3 -1.02 3 0 3 C0 2.01 0 1.02 0 0 Z " fill="#CA3857" transform="translate(175,138)"/>
<path d="M0 0 C2.64 0 5.28 0 8 0 C8 0.66 8 1.32 8 2 C6.02 2 4.04 2 2 2 C2 2.99 2 3.98 2 5 C1.34 5 0.68 5 0 5 C0 3.35 0 1.7 0 0 Z " fill="#FCF5F6" transform="translate(129,109)"/>
<path d="M0 0 C0.66 0.33 1.32 0.66 2 1 C2 1.66 2 2.32 2 3 C2.66 3.33 3.32 3.66 4 4 C2.68 4.99 1.36 5.98 0 7 C0 6.34 0 5.68 0 5 C-1.32 4.34 -2.64 3.68 -4 3 C-3.01 2.67 -2.02 2.34 -1 2 C-0.67 1.34 -0.34 0.68 0 0 Z " fill="#C73051" transform="translate(124,138)"/>
<path d="M0 0 C2.4375 0.375 2.4375 0.375 5 1 C5.33 1.66 5.66 2.32 6 3 C3.36 3 0.72 3 -2 3 C-1.34 2.01 -0.68 1.02 0 0 Z " fill="#E5A0B0" transform="translate(136,195)"/>
<path d="M0 0 C1.98 0.495 1.98 0.495 4 1 C4 1.99 4 2.98 4 4 C2.35 4 0.7 4 -1 4 C-0.67 2.68 -0.34 1.36 0 0 Z " fill="#F2D1D8" transform="translate(42,138)"/>
<path d="M0 0 C0.99 0 1.98 0 3 0 C2.34 2.31 1.68 4.62 1 7 C-0.32 6.34 -1.64 5.68 -3 5 C-2.34 5 -1.68 5 -1 5 C-0.67 3.35 -0.34 1.7 0 0 Z " fill="#F4D9DF" transform="translate(123,109)"/>
<path d="M0 0 C2.31 0 4.62 0 7 0 C6.01 1.485 6.01 1.485 5 3 C3.35 2.67 1.7 2.34 0 2 C0 1.34 0 0.68 0 0 Z " fill="#C11A3E" transform="translate(158,200)"/>
<path d="M0 0 C0.66 0.33 1.32 0.66 2 1 C1.67 3.31 1.34 5.62 1 8 C0.01 7.34 -0.98 6.68 -2 6 C-1.34 4.02 -0.68 2.04 0 0 Z " fill="#F7E3E7" transform="translate(242,180)"/>
<path d="M0 0 C0.99 0.33 1.98 0.66 3 1 C2.67 2.32 2.34 3.64 2 5 C1.01 5 0.02 5 -1 5 C-0.67 3.35 -0.34 1.7 0 0 Z " fill="#F4D6DD" transform="translate(114,45)"/>
</svg>
